HIERARCHY
ROOT Hips
{
	OFFSET 0.000000 35.082581 0.000000
	CHANNELS 6 Xposition Yposition Zposition Xrotation Yrotation Zrotation 
	JOINT Spine
	{
		OFFSET 0.000000 6.876099 0.125700
		CHANNELS 3 Xrotation Yrotation Zrotation
		JOINT Spine1
		{
			OFFSET 0.000000 5.730043 0.104720
			CHANNELS 3 Xrotation Yrotation Zrotation
			JOINT Spine1_split
			{
				OFFSET 0.000000 5.730043 0.104720
				CHANNELS 3 Xrotation Yrotation Zrotation
				JOINT Spine2
				{
					OFFSET 0.000000 5.730043 0.104720
					CHANNELS 3 Xrotation Yrotation Zrotation
					JOINT Neck
					{
						OFFSET 0.000000 10.314075 0.188496
						CHANNELS 3 Xrotation Yrotation Zrotation
						JOINT Head
						{
							OFFSET 0.000000 7.643700 -2.377400
							CHANNELS 3 Xrotation Yrotation Zrotation
							JOINT HeadTop_End
							{
								OFFSET 0.000000 43.788605 -13.619600
								CHANNELS 3 Xrotation Yrotation Zrotation
								End Site
								{
									OFFSET 0.000000 0.000000 0.000000
								}
							}
						}
					}
					JOINT LeftShoulder
					{
						OFFSET 2.196100 4.412489 0.087492
						CHANNELS 3 Xrotation Yrotation Zrotation
						JOINT LeftShoulder_split
						{
							OFFSET 2.196100 4.412489 0.087492
							CHANNELS 3 Xrotation Yrotation Zrotation
							JOINT LeftArm
							{
								OFFSET 8.771219 -2.981674 -0.026999
								CHANNELS 3 Xrotation Yrotation Zrotation
								JOINT LeftForeArm
								{
									OFFSET 8.512804 0.000000 -0.000000
									CHANNELS 3 Xrotation Yrotation Zrotation
									JOINT LeftHand
									{
										OFFSET 18.484802 0.000000 -0.000000
										CHANNELS 3 Xrotation Yrotation Zrotation
										JOINT LeftHandThumb1
										{
											OFFSET 2.499420 -1.158070 2.653252
											CHANNELS 3 Xrotation Yrotation Zrotation
											JOINT LeftHandThumb2
											{
												OFFSET 2.370079 -1.368366 1.368366
												CHANNELS 3 Xrotation Yrotation Zrotation
												JOINT LeftHandThumb3
												{
													OFFSET 2.676727 -1.545410 1.545409
													CHANNELS 3 Xrotation Yrotation Zrotation
													JOINT LeftHandThumb4
													{
														OFFSET 1.692226 -0.977005 0.977007
														CHANNELS 3 Xrotation Yrotation Zrotation
														End Site
														{
															OFFSET 0.000000 0.000000 0.000000
														}
													}
												}
											}
										}
										JOINT LeftHandIndex1
										{
											OFFSET 7.924831 -0.457527 2.345128
											CHANNELS 3 Xrotation Yrotation Zrotation
											JOINT LeftHandIndex2
											{
												OFFSET 3.643303 0.000000 0.000000
												CHANNELS 3 Xrotation Yrotation Zrotation
												JOINT LeftHandIndex3
												{
													OFFSET 3.810799 0.000000 0.000000
													CHANNELS 3 Xrotation Yrotation Zrotation
													JOINT LeftHandIndex4
													{
														OFFSET 2.403702 0.000000 0.000000
														CHANNELS 3 Xrotation Yrotation Zrotation
														End Site
														{
															OFFSET 0.000000 0.000000 0.000000
														}
													}
												}
											}
										}
										JOINT LeftHandMiddle1
										{
											OFFSET 8.563995 0.000000 -0.000000
											CHANNELS 3 Xrotation Yrotation Zrotation
											JOINT LeftHandMiddle2
											{
												OFFSET 3.861618 0.000000 0.000000
												CHANNELS 3 Xrotation Yrotation Zrotation
												JOINT LeftHandMiddle3
												{
													OFFSET 3.701603 0.000000 0.000000
													CHANNELS 3 Xrotation Yrotation Zrotation
													JOINT LeftHandMiddle4
													{
														OFFSET 2.322544 0.000000 0.000000
														CHANNELS 3 Xrotation Yrotation Zrotation
														End Site
														{
															OFFSET 0.000000 0.000000 0.000000
														}
													}
												}
											}
										}
										JOINT LeftHandRing1
										{
											OFFSET 8.426460 -0.424637 -3.286992
											CHANNELS 3 Xrotation Yrotation Zrotation
											JOINT LeftHandRing2
											{
												OFFSET 3.126408 0.000000 0.000000
												CHANNELS 3 Xrotation Yrotation Zrotation
												JOINT LeftHandRing3
												{
													OFFSET 3.085026 0.000000 0.000000
													CHANNELS 3 Xrotation Yrotation Zrotation
													JOINT LeftHandRing4
													{
														OFFSET 1.644005 0.000000 0.000000
														CHANNELS 3 Xrotation Yrotation Zrotation
														End Site
														{
															OFFSET 0.000000 0.000000 0.000000
														}
													}
												}
											}
										}
									}
								}
							}
						}
					}
					JOINT RightShoulder
					{
						OFFSET -2.196100 4.412496 0.070690
						CHANNELS 3 Xrotation Yrotation Zrotation
						JOINT RightShoulder_split
						{
							OFFSET -2.196100 4.412496 0.070690
							CHANNELS 3 Xrotation Yrotation Zrotation
							JOINT RightArm
							{
								OFFSET -8.771282 -2.981682 -0.094208
								CHANNELS 3 Xrotation Yrotation Zrotation
								JOINT RightForeArm
								{
									OFFSET -8.494598 0.000000 0.000000
									CHANNELS 3 Xrotation Yrotation Zrotation
									JOINT RightHand
									{
										OFFSET -18.483803 0.000000 0.000001
										CHANNELS 3 Xrotation Yrotation Zrotation
										JOINT RightHandThumb1
										{
											OFFSET -2.527351 -1.008072 2.575253
											CHANNELS 3 Xrotation Yrotation Zrotation
											JOINT RightHandThumb2
											{
												OFFSET -2.321518 -1.340328 1.340329
												CHANNELS 3 Xrotation Yrotation Zrotation
												JOINT RightHandThumb3
												{
													OFFSET -2.657753 -1.534454 1.534455
													CHANNELS 3 Xrotation Yrotation Zrotation
													JOINT RightHandThumb4
													{
														OFFSET -1.807510 -1.043568 1.043567
														CHANNELS 3 Xrotation Yrotation Zrotation
														End Site
														{
															OFFSET 0.000000 0.000000 0.000000
														}
													}
												}
											}
										}
										JOINT RightHandIndex1
										{
											OFFSET -8.811420 0.015533 2.887987
											CHANNELS 3 Xrotation Yrotation Zrotation
											JOINT RightHandIndex2
											{
												OFFSET -3.537502 0.000000 0.000000
												CHANNELS 3 Xrotation Yrotation Zrotation
												JOINT RightHandIndex3
												{
													OFFSET -3.356201 0.000000 0.000000
													CHANNELS 3 Xrotation Yrotation Zrotation
													JOINT RightHandIndex4
													{
														OFFSET -1.933098 0.000000 0.000000
														CHANNELS 3 Xrotation Yrotation Zrotation
														End Site
														{
															OFFSET 0.000000 0.000000 0.000000
														}
													}
												}
											}
										}
										JOINT RightHandMiddle1
										{
											OFFSET -8.178135 0.000000 0.000000
											CHANNELS 3 Xrotation Yrotation Zrotation
											JOINT RightHandMiddle2
											{
												OFFSET -3.901302 0.000000 0.000000
												CHANNELS 3 Xrotation Yrotation Zrotation
												JOINT RightHandMiddle3
												{
													OFFSET -3.909599 0.000000 0.000000
													CHANNELS 3 Xrotation Yrotation Zrotation
													JOINT RightHandMiddle4
													{
														OFFSET -2.376003 0.000000 0.000000
														CHANNELS 3 Xrotation Yrotation Zrotation
														End Site
														{
															OFFSET 0.000000 0.000000 0.000000
														}
													}
												}
											}
										}
										JOINT RightHandRing1
										{
											OFFSET -7.559013 0.014137 -2.865403
											CHANNELS 3 Xrotation Yrotation Zrotation
											JOINT RightHandRing2
											{
												OFFSET -3.449306 0.000000 0.000000
												CHANNELS 3 Xrotation Yrotation Zrotation
												JOINT RightHandRing3
												{
													OFFSET -3.362106 0.000000 0.000000
													CHANNELS 3 Xrotation Yrotation Zrotation
													JOINT RightHandRing4
													{
														OFFSET -2.076401 0.000000 0.000000
														CHANNELS 3 Xrotation Yrotation Zrotation
														End Site
														{
															OFFSET 0.000000 0.000000 0.000000
														}
													}
												}
											}
										}
									}
								}
							}
						}
					}
				}
			}
		}
	}
	JOINT LeftUpLeg
	{
		OFFSET 10.205400 -3.823500 0.155100
		CHANNELS 3 Xrotation Yrotation Zrotation
		JOINT LeftLeg
		{
			OFFSET 0.708757 -12.982077 0.567790
			CHANNELS 3 Xrotation Yrotation Zrotation
			JOINT LeftFoot
			{
				OFFSET -0.708756 -10.717838 -2.184338
				CHANNELS 3 Xrotation Yrotation Zrotation
				JOINT LeftToeBase
				{
					OFFSET 0.108149 -7.191104 7.560241
					CHANNELS 3 Xrotation Yrotation Zrotation
					JOINT LeftToe_End
					{
						OFFSET 0.070230 0.081724 4.490308
						CHANNELS 3 Xrotation Yrotation Zrotation
						End Site
						{
							OFFSET 0.000000 0.000000 0.000000
						}
					}
				}
			}
		}
	}
	JOINT RightUpLeg
	{
		OFFSET -10.205400 -3.823500 0.005500
		CHANNELS 3 Xrotation Yrotation Zrotation
		JOINT RightLeg
		{
			OFFSET -0.708756 -12.982134 0.610632
			CHANNELS 3 Xrotation Yrotation Zrotation
			JOINT RightFoot
			{
				OFFSET 0.708754 -10.717769 -1.945823
				CHANNELS 3 Xrotation Yrotation Zrotation
				JOINT RightToeBase
				{
					OFFSET -0.108140 -7.191069 7.372968
					CHANNELS 3 Xrotation Yrotation Zrotation
					JOINT RightToe_End
					{
						OFFSET -0.070227 0.081735 4.479403
						CHANNELS 3 Xrotation Yrotation Zrotation
						End Site
						{
							OFFSET 0.000000 0.000000 0.000000
						}
					}
				}
			}
		}
	}
}
MOTION
Frames: 4
Frame Time: 0.016667
1.693999 29.650867 -0.373446 -59.571155 -92.899227 -60.169937 5.391028 -2.113846 -7.889117 2.771444 -0.553949 -1.077814 0.000000 0.000000 0.000000 2.777683 -0.510259 -1.087490 -12.273403 6.004520 4.761553 20.231302 76.958029 -25.708537 -0.000000 -0.000001 -0.000000 5.516884 -2.188430 12.208366 0.000000 0.000000 0.000000 -41.899358 5.599309 2.227382 0.045079 -12.980514 -0.290002 -49.394149 -3.550582 -0.088037 40.109941 -15.297211 -0.360438 5.639928 28.097739 11.338745 1.088520 40.896277 22.734071 -0.000001 -0.000003 -0.000002 6.882278 2.840015 -61.140500 8.247952 7.640079 -89.897932 2.146200 8.173433 -41.827802 -0.000002 -0.000001 -0.000001 -2.345533 4.688863 -62.655272 8.754187 9.897091 -87.051273 1.995380 4.929261 -37.483416 0.000003 -0.000000 -0.000001 -9.042488 10.045613 -60.766192 8.524040 9.508870 -66.892919 6.576531 9.896800 -70.385113 0.000001 -0.000000 -0.000000 -2.478563 1.878750 -16.638419 0.000000 0.000000 0.000000 -51.925878 54.163786 47.616626 1.362544 130.520311 0.246815 -70.593359 -0.218355 -24.603899 0.277491 -1.521506 -1.570515 7.169025 -41.689665 -15.773516 -4.517972 11.064481 4.673966 0.000001 0.000001 -0.000002 6.412842 -12.738391 14.389566 9.941762 -7.465176 101.743236 4.405016 -9.947435 61.138867 -0.000004 -0.000001 0.000001 2.653215 -11.302322 44.730946 9.916108 -9.880679 94.351215 8.462616 -8.530820 83.992223 0.000000 0.000001 -0.000000 2.140187 -7.454474 61.765032 9.609255 -8.992471 89.388701 11.175484 -10.370862 97.638162 0.000002 0.000001 -0.000001 -25.980185 31.645441 47.936317 34.072873 -16.588096 -1.021559 -13.706272 12.183306 -27.548257 -1.836419 -0.000605 -0.000040 -0.000000 0.000000 0.000000 -42.227505 -5.027408 -29.956219 25.862870 12.606138 -2.988207 5.797126 12.971136 27.009636 -0.001641 -0.000386 0.000005 0.000000 -0.000000 0.000000 
1.694417 29.652145 -0.373538 -59.548635 -92.893749 -60.143449 5.390969 -2.113858 -7.888855 2.771402 -0.556398 -1.077452 0.000000 0.000000 0.000000 2.777602 -0.514365 -1.086866 -12.261162 5.997540 4.760195 20.271093 76.969975 -25.754786 0.000000 0.000001 0.000000 5.518630 -2.184570 12.217435 0.000000 0.000000 0.000000 -41.910218 5.611435 2.220979 0.057266 -13.133498 -0.286636 -49.443340 -3.460234 0.032223 40.109938 -15.297216 -0.360433 5.639924 28.097733 11.338741 1.088519 40.896277 22.734070 -0.000003 0.000005 0.000001 6.882276 2.840015 -61.140500 8.247951 7.640078 -89.897932 2.146196 8.173427 -41.827802 0.000003 -0.000003 0.000000 -2.345539 4.688861 -62.655265 8.754187 9.897090 -87.051280 1.995379 4.929263 -37.483416 0.000003 0.000001 0.000000 -9.042489 10.045610 -60.766192 8.524040 9.508870 -66.892912 6.576531 9.896802 -70.385113 -0.000002 0.000001 -0.000001 -2.479249 1.875581 -16.638742 0.000000 0.000000 0.000000 -51.759949 54.134454 47.334225 -0.786896 130.482704 1.826163 -72.076329 -0.111494 -24.458190 0.277494 -1.521508 -1.570514 7.169025 -41.689665 -15.773518 -4.517967 11.064486 4.673972 0.000003 0.000000 -0.000002 6.412846 -12.738392 14.389568 9.941761 -7.465173 101.743242 4.405017 -9.947435 61.138867 0.000002 -0.000001 0.000001 2.653217 -11.302324 44.730943 9.916109 -9.880680 94.351209 8.462615 -8.530819 83.992223 0.000001 -0.000001 -0.000001 2.140191 -7.454472 61.765032 9.609253 -8.992473 89.388714 11.175487 -10.370857 97.638162 -0.000000 -0.000000 -0.000001 -25.965763 31.650967 47.920354 34.058772 -16.581565 -1.012687 -13.697179 12.183037 -27.553641 -1.700158 -0.000670 -0.000054 0.000000 0.000003 0.000000 -42.217229 -5.024843 -29.963896 25.853345 12.604750 -2.977662 5.802244 12.970945 27.005287 -0.001640 -0.000386 0.000005 0.000000 0.000000 -0.000000 
1.694892 29.653652 -0.373547 -59.563266 -92.886748 -60.153872 5.390968 -2.114068 -7.888674 2.771261 -0.563907 -1.076318 0.000000 0.000000 0.000000 2.777362 -0.526623 -1.085019 -12.248463 5.976483 4.762425 20.362314 77.005848 -25.852968 0.000000 0.000001 0.000000 5.523684 -2.173156 12.243771 0.000000 0.000000 0.000000 -41.919285 5.652338 2.202115 0.064101 -13.136966 -0.284907 -49.498593 -3.474562 0.031527 40.109938 -15.297213 -0.360435 5.639928 28.097740 11.338742 1.088521 40.896277 22.734070 -0.000003 -0.000001 -0.000001 6.882279 2.840014 -61.140500 8.247951 7.640077 -89.897932 2.146195 8.173424 -41.827802 -0.000002 0.000002 -0.000001 -2.345538 4.688861 -62.655272 8.754187 9.897093 -87.051273 1.995379 4.929267 -37.483419 0.000000 -0.000000 -0.000001 -9.042487 10.045610 -60.766192 8.524039 9.508868 -66.892919 6.576529 9.896801 -70.385113 0.000001 0.000001 -0.000001 -2.480384 1.866606 -16.643260 0.000000 0.000000 0.000000 -51.815796 54.140270 47.365234 -0.772610 130.490149 1.814557 -72.098425 -0.115879 -24.465721 0.277491 -1.521512 -1.570516 7.169024 -41.689668 -15.773514 -4.517972 11.064481 4.673972 0.000003 -0.000000 0.000001 6.412844 -12.738392 14.389566 9.941764 -7.465176 101.743236 4.405017 -9.947430 61.138867 -0.000002 0.000001 -0.000001 2.653215 -11.302324 44.730940 9.916104 -9.880679 94.351209 8.462612 -8.530823 83.992223 0.000002 -0.000003 -0.000003 2.140190 -7.454473 61.765032 9.609253 -8.992473 89.388701 11.175486 -10.370861 97.638162 0.000002 0.000002 -0.000001 -25.953124 31.655710 47.903361 34.044812 -16.576912 -1.003549 -13.687253 12.182165 -27.557173 -1.637699 -0.000695 -0.000036 0.000000 0.000002 0.000000 -42.203097 -5.022403 -29.973401 25.842043 12.601073 -2.967218 5.806223 12.970212 27.002642 -0.001638 -0.000386 0.000005 -0.000000 0.000000 -0.000000 
1.695390 29.655346 -0.373379 -59.628515 -92.877759 -60.214347 5.394710 -2.113419 -7.883701 2.770433 -0.576464 -1.075720 0.000000 0.000000 0.000000 2.777961 -0.546929 -1.081946 -12.234887 5.943182 4.765604 20.501236 77.063672 -25.999354 -0.000001 0.000001 0.000000 5.535945 -2.153907 12.285026 0.000000 0.000000 0.000000 -41.932044 5.710404 2.170943 0.070652 -13.142539 -0.283207 -49.551878 -3.487744 0.031475 40.109938 -15.297216 -0.360434 5.639927 28.097740 11.338743 1.088523 40.896277 22.734070 -0.000002 0.000001 -0.000000 6.882279 2.840017 -61.140500 8.247949 7.640078 -89.897932 2.146193 8.173426 -41.827798 0.000000 0.000001 0.000001 -2.345538 4.688863 -62.655272 8.754185 9.897091 -87.051273 1.995380 4.929262 -37.483416 0.000001 0.000002 -0.000002 -9.042491 10.045614 -60.766192 8.524039 9.508867 -66.892919 6.576530 9.896803 -70.385106 -0.000000 -0.000001 0.000001 -2.482174 1.852244 -16.650729 0.000000 0.000000 0.000000 -51.874843 54.138729 47.397237 -0.753176 130.499206 1.799596 -72.124120 -0.115287 -24.456536 0.277496 -1.521508 -1.570515 7.169025 -41.689668 -15.773514 -4.517974 11.064481 4.673968 0.000003 0.000001 0.000002 6.412845 -12.738391 14.389569 9.941761 -7.465176 101.743242 4.405016 -9.947430 61.138874 -0.000002 0.000000 0.000000 2.653217 -11.302324 44.730943 9.916109 -9.880681 94.351209 8.462614 -8.530823 83.992230 -0.000001 0.000002 0.000001 2.140188 -7.454472 61.765032 9.609254 -8.992472 89.388707 11.175482 -10.370858 97.638169 0.000001 -0.000000 -0.000002 -25.943567 31.659904 47.886190 34.031534 -16.575126 -0.994272 -13.676621 12.180359 -27.558333 -1.669495 -0.000678 -0.000008 0.000000 -0.000001 -0.000000 -42.185728 -5.019118 -29.985022 25.830607 12.594648 -2.956974 5.808506 12.968713 27.001652 -0.001639 -0.000387 0.000004 0.000000 0.000000 0.000000 
